<?xml version="1.0" standalone="no"?>
<!DOCTYPE svg PUBLIC "-//W3C//DTD SVG 20010904//EN"
 "http://www.w3.org/TR/2001/REC-SVG-20010904/DTD/svg10.dtd">
<svg version="1.0" xmlns="http://www.w3.org/2000/svg"
 width="1000.000000pt" height="737.000000pt" viewBox="0 0 1000.000000 737.000000"
 preserveAspectRatio="xMidYMid meet">

<g transform="translate(0.000000,737.000000) scale(0.100000,-0.100000)"
fill="#000000" stroke="none">
<path d="M4685 6800 c-113 -10 -357 -46 -510 -75 -317 -60 -456 -88 -545 -110
-114 -28 -477 -150 -575 -193 -38 -17 -99 -43 -135 -59 -176 -77 -374 -258
-451 -411 -13 -26 -27 -49 -30 -52 -7 -6 -45 -243 -60 -375 -15 -132 -6 -637
15 -809 31 -250 103 -513 206 -753 52 -121 57 -139 42 -145 -9 -3 -105 -41
-212 -83 -252 -100 -443 -198 -622 -321 -273 -188 -491 -445 -606 -714 -102
-237 -104 -246 -109 -390 -4 -121 -2 -145 21 -233 14 -54 41 -131 61 -172 31
-66 51 -88 177 -206 78 -72 187 -165 242 -205 56 -41 118 -87 140 -104 66 -52
223 -136 441 -235 116 -53 237 -113 270 -135 33 -21 143 -75 245 -118 102 -44
205 -89 227 -101 23 -11 49 -21 58 -21 9 0 89 -29 178 -64 282 -112 591 -193
837 -221 252 -28 812 -40 1261 -26 445 13 590 23 684 47 51 13 309 96 465 150
25 8 86 27 135 40 117 33 355 124 355 135 0 5 7 9 16 9 34 0 768 350 847 404
21 14 39 26 41 26 6 0 164 108 221 150 102 76 287 279 377 415 48 72 90 139
94 150 4 11 24 47 45 80 67 108 98 356 64 511 -32 148 -117 349 -195 464 -122
179 -519 441 -844 556 l-79 28 50 45 c27 25 77 69 113 96 183 143 405 423 541
680 53 102 103 258 121 381 11 77 10 93 -15 219 -35 177 -54 219 -133 295 -35
34 -64 66 -64 71 0 5 -9 9 -20 9 -11 0 -20 4 -20 9 0 19 -131 92 -233 131
l-107 40 -146 0 c-164 0 -209 -9 -361 -70 -58 -23 -101 -36 -107 -30 -5 5 -12
85 -16 177 -5 93 -13 188 -20 212 -6 24 -9 49 -6 57 5 12 -10 42 -89 184 -28
49 -129 154 -170 176 -19 10 -35 22 -35 26 0 5 -5 8 -12 8 -6 0 -19 6 -27 14
-41 37 -180 104 -383 185 -279 111 -390 144 -598 177 -91 14 -219 34 -285 45
-213 33 -566 47 -770 29z m830 -96 c162 -21 335 -49 423 -69 65 -15 274 -93
289 -109 13 -12 -25 -5 -97 19 -41 13 -85 25 -97 25 -12 0 -42 7 -65 15 -24 8
-59 16 -78 18 -19 3 -89 14 -155 25 -170 30 -332 50 -460 58 -60 3 -113 8
-118 11 -45 27 175 31 358 7z m-935 -9 c0 -18 -7 -20 -210 -46 -305 -40 -452
-65 -610 -104 -30 -8 -100 -24 -155 -36 -185 -40 -464 -135 -555 -190 -8 -5
-28 -16 -45 -25 -118 -64 -297 -211 -350 -289 -33 -48 -40 -66 -43 -119 -7
-111 52 -208 202 -329 113 -91 95 -81 255 -139 241 -88 684 -180 1001 -208
170 -15 679 -30 1018 -30 306 0 377 -8 258 -29 -182 -32 -323 -40 -344 -19 -9
9 -39 9 -124 0 -198 -20 -356 -23 -637 -12 -313 11 -480 32 -716 90 -437 106
-659 191 -830 320 -93 70 -99 77 -138 157 -73 152 -51 253 87 400 87 94 142
131 335 227 273 137 657 269 939 321 80 15 433 62 512 68 115 9 150 7 150 -8z
m922 -105 c143 -28 277 -71 442 -142 161 -69 329 -176 360 -230 11 -18 42 -62
70 -98 59 -76 74 -116 83 -217 l6 -75 -83 -77 c-77 -71 -82 -78 -71 -99 19
-35 -1 -26 -49 24 -55 56 -129 108 -235 163 -44 23 -98 53 -120 66 -65 39
-351 116 -545 147 -116 18 -189 22 -515 25 l-381 4 -219 -36 c-264 -43 -394
-76 -614 -157 -219 -80 -274 -105 -350 -164 -125 -97 -150 -123 -172 -185 -12
-33 -26 -62 -31 -65 -15 -10 -83 44 -161 126 -60 62 -78 89 -96 140 -74 220
45 401 364 556 61 29 153 65 205 79 52 14 113 35 135 45 82 41 465 126 630
141 92 8 234 26 345 42 14 3 222 5 462 6 400 1 445 -1 540 -19z m810 -94 c101
-39 208 -90 314 -151 187 -108 244 -161 312 -295 39 -76 42 -87 42 -161 0 -97
-18 -137 -98 -221 -83 -87 -305 -231 -473 -307 -63 -28 -338 -96 -360 -89 -6
2 35 24 92 48 117 49 365 178 449 232 75 48 160 116 226 178 52 49 56 57 69
124 9 44 10 75 4 81 -5 5 -9 23 -9 40 0 16 -9 46 -19 65 -11 19 -24 45 -30 58
-6 12 -46 58 -88 101 -78 78 -169 144 -273 196 -30 15 -62 33 -70 39 -8 7 -48
25 -87 41 -40 15 -73 32 -73 37 0 11 2 11 72 -16z m-1067 -495 c295 -26 503
-61 359 -61 -54 0 -398 -41 -553 -65 -144 -23 -261 -77 -380 -173 -66 -54 -80
-94 -74 -212 l6 -97 -34 -25 c-80 -60 -221 -113 -335 -126 -115 -13 -486 36
-518 68 -5 5 -8 11 -5 13 2 2 72 25 154 51 181 58 265 96 299 137 35 41 33 68
-9 120 -62 78 -43 121 77 181 210 106 587 192 858 196 30 1 100 -3 155 -7z
m603 -207 c188 -46 296 -101 403 -203 82 -79 94 -105 62 -133 -25 -22 -271
-114 -368 -137 -104 -26 -327 -67 -437 -81 -116 -14 -659 -29 -778 -21 l-95 6
82 54 c45 29 85 63 89 75 4 11 7 64 6 116 l-2 95 63 53 c34 29 85 64 112 78
176 86 679 143 863 98z m-2973 -444 c26 -11 54 -20 62 -20 9 0 39 -11 67 -25
28 -13 87 -32 131 -41 44 -9 199 -49 345 -89 276 -75 415 -101 720 -135 313
-34 411 -40 715 -40 295 0 492 -10 590 -31 28 -5 132 -26 233 -45 101 -19 204
-44 230 -56 60 -28 138 -106 162 -161 27 -61 50 -204 50 -311 0 -96 -21 -319
-41 -433 -28 -161 -198 -564 -314 -745 -57 -88 -321 -428 -402 -517 -72 -81
-214 -205 -270 -238 -65 -38 -277 -111 -378 -130 -114 -21 -478 -24 -570 -4
-33 7 -90 16 -126 20 -123 15 -172 46 -336 215 -248 254 -413 452 -495 596
-75 129 -237 445 -287 555 -47 107 -96 263 -161 520 -67 263 -84 404 -85 700
0 247 6 296 50 403 17 39 41 41 110 12z m4837 6 c82 -18 115 -35 197 -99 67
-53 96 -101 142 -236 22 -63 25 -203 8 -327 -24 -172 -101 -373 -182 -475 -28
-36 -80 -102 -115 -147 -119 -152 -295 -314 -586 -537 -87 -67 -396 -275 -518
-348 -83 -50 -208 -110 -215 -103 -9 9 182 308 219 342 18 18 110 82 203 144
94 61 175 118 181 125 6 8 37 34 70 58 102 76 249 213 337 314 105 122 187
224 187 233 0 4 9 10 19 13 22 5 125 207 160 314 32 95 43 193 31 271 -13 81
-69 200 -108 229 -45 33 -180 83 -242 90 -99 10 -272 -43 -367 -113 l-23 -16
0 61 c0 59 1 62 39 89 53 39 244 113 311 122 91 12 181 10 252 -4z m-142 -190
c30 -8 56 -19 58 -25 2 -6 10 -11 18 -11 28 0 101 -85 119 -140 28 -85 18
-195 -29 -295 -48 -103 -167 -281 -248 -369 -150 -165 -399 -371 -552 -456
-68 -39 -67 -49 -9 110 123 337 153 496 179 962 l7 117 36 24 c134 89 284 118
421 83z m-644 -491 c-9 -216 -47 -438 -121 -695 -74 -256 -188 -530 -261 -626
-19 -24 -34 -47 -34 -50 0 -17 -157 -242 -207 -297 -115 -125 -323 -327 -337
-327 -8 0 -18 -5 -22 -12 -5 -7 -3 -8 7 -3 12 8 12 6 0 -8 -7 -9 -19 -17 -26
-17 -6 0 -20 -9 -31 -21 -10 -11 -28 -26 -38 -31 -19 -10 -19 -9 1 22 12 18
86 114 165 214 180 224 230 294 336 470 138 231 201 370 330 736 108 305 173
552 192 728 5 46 12 93 16 105 6 18 8 17 21 -14 12 -27 14 -63 9 -174z m-4207
-982 c87 -178 232 -404 373 -579 110 -137 543 -588 621 -647 142 -106 387
-208 571 -237 33 -5 138 -14 231 -20 223 -14 270 -23 392 -76 139 -61 447
-167 628 -217 l150 -41 234 -4 c273 -4 367 7 552 68 129 42 196 74 284 133
183 124 302 224 493 411 182 179 215 215 289 328 46 70 88 130 93 133 25 15
81 -166 95 -307 14 -132 -31 -401 -95 -566 -50 -131 -231 -406 -319 -485 -87
-78 -358 -243 -554 -337 -120 -58 -278 -117 -425 -160 -45 -13 -72 -26 -69
-33 2 -7 34 -15 73 -20 53 -6 77 -4 108 8 22 9 58 20 80 24 225 46 572 186
816 330 63 38 136 80 163 95 141 80 397 306 465 409 41 65 86 175 120 294 25
93 27 109 27 313 0 207 -1 218 -28 304 -15 49 -53 135 -85 192 -79 143 -163
240 -265 309 -46 30 -88 55 -93 55 -5 0 -27 9 -48 21 -21 11 -86 39 -145 61
-58 22 -112 45 -119 51 -14 11 -17 8 60 69 l34 28 142 -50 c254 -89 444 -200
661 -389 198 -173 353 -576 313 -813 -15 -85 -59 -199 -112 -288 -84 -144
-310 -400 -391 -445 -20 -11 -70 -43 -110 -71 -141 -97 -593 -330 -714 -368
-33 -10 -69 -23 -80 -27 -136 -58 -637 -214 -810 -253 -93 -21 -407 -59 -800
-97 -376 -36 -883 -50 -1141 -30 -401 30 -552 43 -694 62 -85 10 -213 26 -285
35 -71 8 -204 33 -295 54 -91 22 -220 49 -288 60 -203 33 -332 91 -584 259
-589 393 -834 667 -879 983 -12 82 -11 94 15 220 33 162 77 297 116 361 17 27
30 55 30 62 0 8 31 60 69 117 185 277 634 615 979 739 59 21 109 38 112 38 3
1 21 -29 39 -66z m4427 -292 c-3 -5 -66 -44 -138 -86 -73 -43 -161 -94 -194
-115 -65 -40 -264 -133 -271 -127 -2 2 88 53 199 113 112 59 248 134 303 166
107 62 109 63 101 49z m402 -70 c10 -6 4 -20 -26 -57 -53 -67 -243 -248 -322
-308 -73 -54 -291 -163 -390 -194 -74 -24 -170 -42 -170 -33 0 3 52 32 114 64
63 33 152 84 198 114 163 109 394 319 436 399 11 22 19 24 80 24 37 0 73 -4
80 -9z m-1048 -281 c0 -5 -5 -10 -11 -10 -5 0 -7 5 -4 10 3 6 8 10 11 10 2 0
4 -4 4 -10z m-260 -318 c0 -70 -305 -363 -403 -387 -15 -4 -31 -13 -38 -21 -6
-8 -18 -14 -27 -14 -8 0 -23 -6 -31 -14 -18 -16 -214 -51 -331 -60 l-75 -5 55
13 c30 7 68 18 83 25 16 6 32 9 37 6 4 -3 20 2 36 10 15 8 53 17 83 20 86 9
101 14 95 29 -3 9 21 28 73 56 100 54 193 128 318 256 100 103 125 120 125 86z
m-210 -286 c0 -2 -8 -10 -17 -17 -16 -13 -17 -12 -4 4 13 16 21 21 21 13z"/>
<path d="M2286 3521 c-108 -56 -327 -199 -402 -263 -28 -24 -62 -58 -75 -77
-13 -19 -44 -61 -69 -92 -150 -192 -224 -324 -275 -494 -68 -224 -79 -318 -50
-428 19 -73 71 -177 127 -249 23 -32 63 -85 88 -119 63 -86 172 -185 297 -270
60 -40 158 -111 218 -156 61 -46 153 -105 205 -132 52 -27 109 -56 125 -64 53
-27 129 -56 137 -51 21 13 1 34 -74 80 -190 114 -453 317 -564 435 -157 168
-241 331 -303 590 -61 252 22 576 209 817 95 124 308 343 398 409 39 30 72 58
72 62 0 5 14 14 30 21 32 13 40 30 15 30 -8 0 -57 -22 -109 -49z"/>
<path d="M7770 3396 c0 -2 51 -55 113 -117 178 -178 278 -349 332 -564 25 -99
14 -332 -20 -443 -105 -343 -153 -441 -295 -607 -61 -71 -110 -132 -110 -136
0 -19 24 -19 44 0 12 12 27 21 33 21 5 0 18 9 28 20 10 11 22 20 27 20 18 0
204 169 258 235 118 142 201 299 237 443 39 155 39 314 -1 427 -36 105 -104
233 -168 320 -63 85 -245 269 -311 314 -48 33 -167 81 -167 67z"/>
<path d="M3285 2605 c-184 -41 -319 -118 -350 -200 -35 -90 8 -150 160 -224
107 -52 413 -119 620 -136 44 -3 154 -16 245 -27 158 -20 180 -20 530 -8 200
7 375 16 388 21 41 16 19 34 -49 40 -35 4 -125 14 -199 22 -74 9 -261 28 -415
42 -182 17 -354 40 -490 65 -115 21 -246 44 -290 50 -101 14 -176 35 -238 67
l-50 25 6 50 c4 28 12 57 19 65 16 20 130 76 198 98 74 24 112 44 105 55 -9
14 -119 11 -190 -5z"/>
<path d="M5598 2283 c7 -3 16 -2 19 1 4 3 -2 6 -13 5 -11 0 -14 -3 -6 -6z"/>
</g>
</svg>
