<?xml version="1.0" standalone="no"?>
<!DOCTYPE svg PUBLIC "-//W3C//DTD SVG 20010904//EN"
 "http://www.w3.org/TR/2001/REC-SVG-20010904/DTD/svg10.dtd">
<svg version="1.0" xmlns="http://www.w3.org/2000/svg"
 width="1000.000000pt" height="1080.000000pt" viewBox="0 0 1000.000000 1080.000000"
 preserveAspectRatio="xMidYMid meet">

<g transform="translate(0.000000,1080.000000) scale(0.100000,-0.100000)"
fill="#000000" stroke="none">
<path d="M0 5400 l0 -5400 5000 0 5000 0 0 5400 0 5400 -5000 0 -5000 0 0
-5400z m3566 3645 c101 -155 317 -313 554 -407 265 -104 504 -157 1095 -243
651 -95 870 -155 1051 -288 121 -89 188 -202 188 -322 1 -89 -14 -138 -66
-215 -77 -116 -228 -215 -418 -275 -142 -44 -271 -73 -615 -135 -368 -67 -490
-97 -585 -141 -102 -47 -140 -93 -140 -167 0 -84 85 -155 336 -280 280 -140
394 -222 448 -323 l29 -54 -41 41 c-47 47 -154 105 -282 154 -383 147 -465
187 -553 269 -27 25 -61 66 -75 91 -24 40 -27 56 -27 135 0 68 5 99 19 128 61
124 241 217 541 282 61 13 245 44 410 69 451 68 548 91 677 158 136 70 208
161 208 263 0 94 -54 173 -168 249 -162 107 -317 150 -951 267 -443 81 -657
131 -862 199 -404 136 -657 317 -813 587 -39 66 -50 101 -14 43 12 -19 36 -57
54 -85z m774 -1729 c0 -2 -8 -10 -17 -17 -16 -13 -17 -12 -4 4 13 16 21 21 21
13z m1665 -736 c483 -41 808 -120 1012 -246 132 -82 180 -166 190 -332 5 -80
8 -92 22 -86 236 104 463 65 625 -106 236 -251 235 -647 -3 -942 -178 -221
-509 -389 -894 -454 l-108 -19 -36 -65 c-125 -224 -267 -414 -438 -586 -71
-72 -162 -156 -201 -187 -383 -300 -823 -446 -1233 -408 -126 11 -288 45 -366
76 l-40 15 50 -5 c382 -37 694 15 1010 170 730 357 1260 1221 1408 2298 8 53
10 97 6 97 -5 0 -30 -13 -56 -29 -158 -97 -490 -200 -828 -255 -387 -64 -625
-81 -1130 -81 -500 0 -735 16 -1115 76 -442 69 -842 206 -1015 346 -66 54
-120 134 -130 193 -20 121 95 240 313 325 84 32 331 99 339 92 1 -2 -41 -21
-95 -41 -132 -52 -286 -130 -349 -177 -78 -59 -108 -103 -108 -160 0 -42 5
-53 40 -89 152 -157 605 -273 1315 -337 283 -26 1168 -25 1455 0 602 54 1006
142 1257 274 271 142 145 304 -364 468 -123 40 -437 121 -648 168 -82 18 -47
20 115 7z m-1614 -27 c13 -16 12 -17 -3 -4 -10 7 -18 15 -18 17 0 8 8 3 21
-13z m2825 -2608 c368 -83 597 -186 732 -329 73 -77 97 -132 97 -226 0 -94
-24 -147 -108 -237 -484 -517 -2441 -792 -4147 -582 -350 43 -734 117 -1038
201 -132 36 -222 67 -152 53 51 -10 331 -45 525 -64 1460 -148 3113 -59 4079
220 321 93 532 202 620 321 43 58 48 136 13 204 -66 130 -303 287 -617 408
-169 65 -169 69 -4 31z m-5024 -3422 c23 -20 23 -57 1 -74 -15 -11 -16 -11 -5
1 27 31 11 72 -33 83 -19 4 -19 5 -1 6 11 0 28 -6 38 -16z m-69 -8 c-3 -9 -8
-14 -10 -11 -3 3 -2 9 2 15 9 16 15 13 8 -4z m-1760 -114 c22 -61 43 -108 47
-104 4 4 24 56 45 116 21 59 42 107 47 107 11 0 9 -5 -42 -149 -23 -64 -44
-107 -53 -109 -15 -3 -17 0 -67 143 -15 44 -31 88 -36 99 -5 13 -3 17 6 14 8
-2 32 -55 53 -117z m517 89 c0 -23 4 -30 20 -30 11 0 20 -4 20 -10 0 -5 -10
-10 -21 -10 -20 0 -21 -4 -17 -71 3 -55 8 -74 23 -85 23 -17 14 -29 -13 -15
-11 6 -22 25 -26 42 -10 51 -7 209 4 209 6 0 10 -13 10 -30z m515 16 c25 -11
33 -19 29 -30 -7 -19 -5 -19 -40 -1 -36 18 -55 19 -78 2 -28 -21 -9 -45 49
-62 87 -25 108 -74 54 -127 -29 -29 -33 -30 -90 -25 -68 6 -72 8 -64 29 5 13
12 14 40 5 50 -15 100 1 100 33 0 16 -8 28 -25 36 -87 40 -105 51 -108 67 -14
70 53 106 133 73z m105 -16 c0 -25 4 -30 25 -30 16 0 25 -6 25 -15 0 -9 -9
-15 -25 -15 -24 0 -25 -3 -25 -60 0 -55 2 -62 25 -72 14 -6 25 -15 25 -20 0
-18 -31 -20 -55 -4 -24 16 -25 20 -25 131 0 96 3 115 15 115 10 0 15 -10 15
-30z m482 -32 l3 -62 36 32 c20 18 45 32 55 32 14 0 9 -9 -21 -40 l-39 -40 42
-60 c40 -57 41 -60 20 -60 -16 0 -32 14 -53 45 -16 25 -33 45 -37 45 -5 0 -8
-20 -8 -45 0 -38 -3 -45 -20 -45 -19 0 -20 7 -20 130 0 122 1 130 20 130 16 0
19 -8 22 -62z m193 30 c1 -20 -2 -24 -11 -17 -8 7 -14 6 -17 -3 -3 -7 -6 2 -6
20 -1 27 3 33 17 30 11 -2 17 -13 17 -30z m-44 -35 c13 -16 12 -17 -3 -4 -17
13 -22 21 -14 21 2 0 10 -8 17 -17z m-1502 -19 c12 -15 21 -40 21 -55 0 -29 0
-29 -65 -29 -72 0 -83 -12 -44 -51 17 -17 30 -20 65 -16 43 4 59 -5 28 -17
-45 -17 -106 3 -123 41 -45 98 56 206 118 127z m191 16 c17 -11 10 -13 -40
-10 -47 2 -75 -28 -75 -80 0 -55 26 -80 82 -80 27 0 42 -4 38 -10 -9 -15 -78
-12 -102 5 -50 35 -50 135 0 170 24 17 74 20 97 5z m265 -13 c20 -16 28 -35
32 -69 5 -42 3 -50 -25 -78 -41 -41 -83 -41 -124 0 -28 28 -30 36 -25 78 9 82
84 119 142 69z m85 7 c0 -14 2 -14 22 0 24 17 38 20 38 9 0 -5 -14 -16 -30
-25 -29 -17 -30 -19 -30 -93 0 -43 -4 -75 -10 -75 -6 0 -10 40 -10 100 0 60 4
100 10 100 6 0 10 -7 10 -16z m537 1 c30 -21 44 -75 32 -120 -25 -88 -143 -88
-168 0 -20 72 20 135 84 135 17 0 40 -7 52 -15z m198 -5 c0 -10 -8 -14 -27
-12 -58 6 -91 -42 -67 -100 11 -28 36 -40 74 -35 12 1 20 -4 20 -13 0 -19 -48
-25 -85 -10 -63 26 -68 148 -6 179 31 15 91 9 91 -9z m5364 -83 c8 -26 17 -47
21 -47 4 0 13 21 21 47 8 25 20 48 26 50 13 5 -22 -113 -38 -131 -12 -14 -18
-5 -45 69 -16 44 -20 65 -12 63 7 -3 19 -26 27 -51z m638 38 c2 -6 -9 -11 -23
-10 -39 0 -42 -23 -5 -36 34 -12 49 -43 31 -64 -13 -16 -38 -19 -64 -9 -27 10
-18 22 17 20 38 -1 43 19 8 37 -36 18 -48 42 -31 62 14 17 61 17 67 0z m333
-20 c0 -35 16 -47 26 -20 4 8 13 15 22 15 13 0 13 -3 -2 -19 -16 -18 -16 -21
-1 -50 19 -38 8 -40 -22 -3 l-22 27 -1 -27 c0 -16 -4 -28 -10 -28 -6 0 -10 30
-10 70 0 40 4 70 10 70 6 0 10 -16 10 -35z m580 32 c0 -4 -34 -104 -45 -136
-3 -8 -8 -11 -11 -8 -8 7 38 147 48 147 4 0 8 -2 8 -3z m98 -9 c21 -21 13 -45
-25 -77 l-38 -30 43 -1 c23 0 42 -4 42 -10 0 -5 -22 -10 -50 -10 -62 0 -65 15
-14 63 42 40 39 62 -8 53 -26 -5 -29 -4 -18 9 15 18 51 20 68 3z m82 -48 c0
-33 4 -60 10 -60 6 0 10 -4 10 -10 0 -5 -13 -10 -30 -10 -16 0 -30 5 -30 10 0
6 5 10 10 10 6 0 10 20 10 45 0 38 -2 43 -17 38 -16 -6 -16 -4 1 15 29 34 36
27 36 -38z m118 48 c21 -21 13 -45 -25 -77 l-38 -30 43 -1 c23 0 42 -4 42 -10
0 -5 -22 -10 -50 -10 -62 0 -65 15 -14 63 42 40 39 62 -8 53 -26 -5 -29 -4
-18 9 15 18 51 20 68 3z m114 -40 c2 -29 2 -61 0 -70 -5 -22 -22 -24 -22 -3 0
10 -10 15 -30 15 -16 0 -30 3 -30 6 0 16 56 104 67 104 6 0 13 -22 15 -52z
m116 40 c21 -21 13 -45 -25 -77 l-38 -30 43 -1 c23 0 42 -4 42 -10 0 -5 -22
-10 -50 -10 -62 0 -65 15 -14 63 42 40 39 62 -8 53 -26 -5 -29 -4 -18 9 15 18
51 20 68 3z m104 -5 c39 -35 8 -122 -44 -123 -10 0 -18 5 -18 10 0 6 9 10 20
10 10 0 24 10 31 22 10 18 9 20 -6 15 -24 -10 -55 10 -55 36 0 44 38 61 72 30z
m120 -35 c2 -29 2 -61 0 -70 -5 -22 -22 -24 -22 -3 0 10 -10 15 -30 15 -16 0
-30 3 -30 6 0 16 56 104 67 104 6 0 13 -22 15 -52z m116 44 c22 -14 27 -78 8
-107 -32 -49 -86 -21 -86 45 0 56 39 86 78 62z m-2077 -50 c-15 -5 -14 -59 2
-65 6 -2 9 -7 6 -11 -15 -17 -37 8 -41 47 -6 59 0 72 24 50 11 -10 15 -19 9
-21z m359 13 c9 -10 9 -15 1 -15 -15 0 -14 -57 2 -63 6 -2 9 -8 4 -13 -19 -20
-43 38 -38 94 1 16 16 15 31 -3z m-532 -7 c23 -23 13 -38 -24 -38 -46 0 -41
-23 7 -30 27 -4 30 -7 16 -13 -28 -11 -44 -9 -61 9 -32 31 -14 84 29 84 12 0
26 -5 33 -12z m109 5 c14 -6 10 -9 -17 -13 -29 -4 -35 -9 -35 -30 0 -21 5 -26
33 -28 36 -4 34 -22 -3 -22 -28 0 -55 24 -55 50 0 22 25 50 45 50 7 0 22 -3
32 -7z m177 -9 c21 -20 20 -43 -1 -66 -20 -22 -46 -23 -67 -2 -31 30 -9 84 34
84 10 0 26 -7 34 -16z m86 6 c0 -4 -7 -10 -15 -14 -9 -3 -15 -19 -15 -41 0
-19 -4 -35 -10 -35 -5 0 -10 22 -10 49 0 45 2 49 25 49 14 0 25 -4 25 -8z
m274 -6 c21 -20 20 -43 -1 -66 -20 -22 -46 -23 -67 -2 -31 30 -9 84 34 84 10
0 26 -7 34 -16z m113 9 c14 -6 10 -9 -17 -13 -29 -4 -35 -9 -35 -30 0 -21 5
-26 33 -28 36 -4 34 -22 -3 -22 -28 0 -55 24 -55 50 0 22 25 50 45 50 7 0 22
-3 32 -7z m250 0 c14 -6 10 -9 -17 -13 -29 -4 -35 -9 -35 -30 0 -21 5 -26 33
-28 36 -4 34 -22 -3 -22 -28 0 -55 24 -55 50 0 22 25 50 45 50 7 0 22 -3 32
-7z m107 -9 c21 -20 20 -43 -1 -66 -20 -22 -46 -23 -67 -2 -31 30 -9 84 34 84
10 0 26 -7 34 -16z m116 4 c0 -9 3 -9 12 0 17 17 45 15 52 -4 10 -25 7 -84 -4
-84 -5 0 -10 18 -10 41 0 33 -3 40 -17 37 -13 -2 -19 -14 -21 -41 -4 -50 -22
-47 -22 4 0 36 -2 40 -22 37 -19 -2 -24 -10 -26 -40 -5 -55 -22 -46 -22 10 l0
49 40 1 c25 1 40 -3 40 -10z m-330 -78 c0 -5 -4 -10 -10 -10 -5 0 -10 5 -10
10 0 6 5 10 10 10 6 0 10 -4 10 -10z"/>
<path d="M7325 5739 c-22 -5 -58 -16 -81 -24 l-40 -15 -12 -123 c-30 -314
-132 -721 -242 -964 -17 -36 -28 -68 -26 -70 10 -10 291 92 401 146 282 138
458 330 495 540 53 291 -220 572 -495 510z"/>
<path d="M2150 500 c0 -5 5 -10 10 -10 6 0 10 5 10 10 0 6 -4 10 -10 10 -5 0
-10 -4 -10 -10z"/>
<path d="M536 418 c-28 -39 -21 -48 39 -48 59 0 67 9 45 51 -15 27 -64 25 -84
-3z"/>
<path d="M986 424 c-50 -50 -21 -144 44 -144 48 0 80 50 66 104 -13 53 -75 75
-110 40z"/>
<path d="M1616 408 c-32 -46 -8 -118 39 -118 28 0 55 34 55 70 0 36 -27 70
-55 70 -13 0 -31 -10 -39 -22z"/>
<path d="M9187 350 c-18 -29 -18 -30 2 -30 17 0 21 6 21 30 0 17 -1 30 -3 30
-1 0 -11 -13 -20 -30z"/>
<path d="M9404 375 c-7 -18 3 -35 21 -35 18 0 26 15 19 34 -8 20 -33 21 -40 1z"/>
<path d="M9527 350 c-18 -29 -18 -30 2 -30 17 0 21 6 21 30 0 17 -1 30 -3 30
-1 0 -11 -13 -20 -30z"/>
<path d="M9634 365 c-9 -38 3 -75 26 -75 23 0 35 37 26 75 -4 16 -13 25 -26
25 -13 0 -22 -9 -26 -25z"/>
<path d="M7385 340 c-4 -6 5 -10 19 -10 14 0 26 5 26 10 0 6 -9 10 -19 10 -11
0 -23 -4 -26 -10z"/>
<path d="M7664 336 c-10 -26 4 -48 28 -44 17 2 23 10 23 28 0 18 -6 26 -23 28
-13 2 -25 -3 -28 -12z"/>
<path d="M8024 336 c-10 -26 4 -48 28 -44 17 2 23 10 23 28 0 18 -6 26 -23 28
-13 2 -25 -3 -28 -12z"/>
<path d="M8494 336 c-10 -26 4 -48 28 -44 17 2 23 10 23 28 0 18 -6 26 -23 28
-13 2 -25 -3 -28 -12z"/>
</g>
</svg>
